<?xml version="1.0" encoding="utf-8"?>
<!-- Generator: Adobe Illustrator 19.1.0, SVG Export Plug-In . SVG Version: 6.00 Build 0)  -->
<svg version="1.1" id="Layer_1" xmlns="http://www.w3.org/2000/svg" xmlns:xlink="http://www.w3.org/1999/xlink" x="0px" y="0px"
	 viewBox="0 0 350 125" style="enable-background:new 0 0 350 125;" xml:space="preserve">
<style type="text/css">
	.st0{fill:#5E410F;}
	.st1{fill:#DE9924;}
</style>
<path class="st0" d="M18,16.9l11.1,21.6c1,1.9,3.9,1.1,3.8-1l-1.3-21.6c-0.1-1.1-0.9-1.9-2-1.9h-9.8C18.3,14,17.3,15.6,18,16.9z"/>
<path class="st0" d="M39.6,7.4l8.4,3.9c0.9,0.4,1.4,1.4,1.1,2.4l-6.4,23.2c-0.6,2.2-3.8,1.8-3.9-0.4L36.7,9.4
	C36.6,7.9,38.2,6.8,39.6,7.4z"/>
<path class="st0" d="M52.1,20.2l-1.9,19.9c-0.2,2.1,2.5,3,3.7,1.3l8.7-13c0.5-0.8,0.4-1.8-0.2-2.5L55.5,19
	C54.3,17.8,52.3,18.6,52.1,20.2z"/>
<g>
	<g>
		<path class="st1" d="M130.5,75.7c-1,0-1.7-0.8-1.7-1.7V62.6h-16.4v11.4c0,1-0.8,1.7-1.8,1.7c-1,0-1.7-0.8-1.7-1.7V48.8
			c0-0.9,0.8-1.7,1.8-1.7c0.9,0,1.7,0.8,1.7,1.7v10.6h16.4V48.8c0-0.9,0.8-1.7,1.8-1.7c0.9,0,1.7,0.8,1.7,1.7v25.1
			C132.2,74.9,131.5,75.7,130.5,75.7z"/>
		<path class="st1" d="M168.5,75.7c-0.7,0-1.4-0.4-1.7-1.1l-2.1-5.3h-13.9l-2.1,5.3c-0.3,0.7-1,1.1-1.7,1.1c-1.1,0-1.9-0.9-1.9-1.8
			c0-0.2,0-0.5,0.1-0.7l9.7-24.1c0.5-1.1,1.6-1.9,2.9-1.9c1.2,0,2.3,0.8,2.8,1.9l9.7,24.1c0.1,0.2,0.1,0.5,0.1,0.7
			C170.4,74.7,169.6,75.7,168.5,75.7z M157.7,51l-6,15.1h11.9L157.7,51z"/>
		<path class="st1" d="M196,64l6,9.1c0.2,0.3,0.3,0.6,0.3,0.9c0,0.8-0.7,1.7-1.7,1.7c-0.5,0-1.1-0.3-1.4-0.8l-6.8-10.6h-5.6v9.7
			c0,1-0.8,1.7-1.8,1.7c-1,0-1.7-0.8-1.7-1.7v-24c0-1.4,1.1-2.5,2.5-2.5h8.7c5.1,0,8.8,3.3,8.8,8.4C203.3,60.9,199.8,63.7,196,64z
			 M186.7,50.5v10.7h7.4c3.3,0,5.6-2.2,5.6-5.4s-2.3-5.3-5.6-5.3H186.7z"/>
		<path class="st1" d="M239.8,49.7l-9.7,24.1c-0.5,1.1-1.6,1.9-2.8,1.9h-0.1c-1.2,0-2.4-0.8-2.8-1.9l-9.7-24.1
			c-0.1-0.2-0.1-0.4-0.1-0.7c0-0.8,0.8-1.8,1.9-1.8c0.7,0,1.4,0.4,1.7,1.1l9.1,23.3l9.1-23.3c0.3-0.7,0.9-1.1,1.7-1.1
			c1.1,0,1.9,0.9,1.9,1.8C239.9,49.2,239.9,49.5,239.8,49.7z"/>
		<path class="st1" d="M264.2,75.9c-7.6,0-11.4-4.5-11.4-11.4V48.8c0-0.9,0.8-1.7,1.8-1.7c0.9,0,1.7,0.8,1.7,1.7v15.6
			c0,5.1,2.8,8.4,7.9,8.4c5.2,0,7.9-3.2,7.9-8.4V48.8c0-0.9,0.8-1.7,1.8-1.7c0.9,0,1.7,0.8,1.7,1.7v15.7
			C275.6,71.5,271.8,75.9,264.2,75.9z"/>
		<path class="st1" d="M299.6,75.9c-4.2,0-7.4-1.4-9.8-3.5c-0.4-0.3-0.5-0.8-0.5-1.3c0-0.8,0.6-1.8,1.6-1.8c0.3,0,0.7,0.1,1,0.3
			c1.9,1.7,4.6,3.1,7.9,3.1c5,0,6.6-2.7,6.6-4.8c0-7.2-16.6-3.2-16.6-13.2c0-4.6,4.1-7.8,9.6-7.8c3.6,0,6.7,1.1,9,3
			c0.4,0.3,0.6,0.8,0.6,1.3c0,0.8-0.7,1.7-1.6,1.7c-0.3,0-0.7-0.1-1-0.4c-2.1-1.7-4.6-2.4-7.2-2.4c-3.4,0-5.8,1.8-5.8,4.5
			c0,6.3,16.6,2.7,16.6,13.1C310,71.8,307.2,75.9,299.6,75.9z"/>
		<path class="st1" d="M341.4,50.5h-7.6v23.4c0,1-0.8,1.7-1.8,1.7c-1,0-1.7-0.8-1.7-1.7V50.5h-7.6c-0.8,0-1.5-0.7-1.5-1.6
			c0-0.8,0.7-1.5,1.5-1.5h18.7c0.8,0,1.5,0.7,1.5,1.6C342.9,49.8,342.2,50.5,341.4,50.5z"/>
	</g>
</g>
<path class="st0" d="M67,54.5H9.3c-1.8,0-2.7,1.9-1.4,3.2L28,77.5h18.9c1,0,1.9,0.7,2.1,1.7c0.2,1.3-0.8,2.3-2,2.3H32l8,8h14.9
	c1,0,1.9,0.7,2.1,1.7c0.2,1.3-0.8,2.3-2,2.3H44l21.8,22.1c1.3,1.3,3.2,0.4,3.2-1.4V56.5C69,55.4,68.1,54.5,67,54.5z"/>
</svg>
